<svg width="720" height="371" version="1.1" xmlns="http://www.w3.org/2000/svg" desc="Created with imagetracer.js version 1.2.6" ><path fill="rgb(3,3,3)" stroke="rgb(3,3,3)" stroke-width="1" opacity="1" d="M 293.5 8 L 340.5 8 L 363.5 15 L 383 31 L 391 48.5 L 395 68.5 L 395 93.5 L 381 117.5 L 349.5 152 L 346 154.5 L 376 155 L 376 160.5 L 375.5 161 L 338.5 161 L 324 171 L 327 179 L 343.5 183 L 369.5 194 L 400.5 196 L 423 178.5 L 425 172.5 L 454 121.5 L 507 45.5 L 525 26.5 L 525 25 L 533.5 18 L 536.5 17 L 549 17 L 552 25.5 L 552 83.5 L 551 84.5 L 551 94.5 L 550 95.5 L 548 118.5 L 542 145.5 L 541 183.5 L 540 184.5 L 540 193.5 L 538 201.5 L 536 223.5 L 525 262.5 L 521 268 L 499.5 267 L 478.5 260 L 458.5 251 L 429.5 234 L 412.5 222 L 410 222 L 367.5 328 Q 363.8 328.8 363 326.5 L 363 321.5 L 373 294.5 L 400 227.5 L 405 218.5 L 391.5 211 L 385.5 216 L 333.5 247 L 297.5 266 L 241.5 292 L 165.5 315 L 156.5 315 L 155.5 316 L 146.5 316 L 145.5 317 L 136.5 317 L 125.5 319 L 93.5 319 L 92.5 318 L 65.5 318 Q 64.3 315.8 59.5 317 L 29 294 L 15 272.5 L 5 242.5 L 4 237.5 L 4 222.5 L 3 221.5 L 3 201.5 L 11 155.5 L 35 115.5 L 68.5 82 L 94.5 67 L 127.5 56 Q 133 57.5 134.5 55 L 168.5 55 L 169.5 54 L 203.5 54 L 209.5 58 L 217 43 L 221.5 41 L 250.5 19 L 293.5 8 Z M 299 14 L 255 25 L 226 46 L 222 50 L 216 62 L 245 78 L 272 102 L 284 115 L 300 135 L 312 155 L 336 155 L 345 147 Q 361 132 375 114 L 387 95 L 388 93 L 388 75 L 389 74 L 384 50 L 378 38 L 360 21 L 354 19 L 336 14 L 299 14 Z M 541 23 L 530 30 L 530 32 L 512 51 L 462 122 L 435 169 L 436 170 L 458 152 L 498 126 L 516 118 L 541 118 L 544 89 L 545 88 L 545 61 L 546 60 L 546 29 L 544 25 Q 545 22 541 23 Z M 198 60 L 197 61 L 132 62 L 99 73 L 74 87 L 40 121 L 18 158 L 9 208 L 10 210 L 11 239 L 21 269 L 33 287 L 64 311 L 114 312 L 115 313 L 167 308 L 238 286 L 306 254 L 343 234 L 382 210 L 383 207 L 368 200 L 339 196 L 329 191 Q 326 192 327 190 L 323 185 L 313 182 L 308 182 L 296 188 L 288 188 L 288 182 Q 292 174 305 176 L 314 170 L 310 164 L 308 161 L 270 161 L 266 160 L 243 152 L 217 133 L 204 98 L 204 70 L 207 65 L 198 60 Z M 214 68 L 210 74 L 210 94 L 222 127 L 247 146 L 273 155 L 304 155 L 294 139 L 278 119 L 240 83 L 214 68 Z M 520 124 L 498 134 L 462 158 L 431 182 L 427 186 L 422 197 L 467 197 L 468 198 L 475 198 L 476 197 L 502 194 L 514 185 L 518 181 L 535 148 L 536 136 L 537 135 L 537 124 L 520 124 Z M 318 161 L 320 165 L 326 162 L 318 161 Z M 534 165 L 523 187 L 503 201 L 483 203 L 482 204 L 418 204 L 414 215 Q 439 233 469 248 L 501 260 L 516 262 L 519 259 L 529 224 L 533 188 L 534 187 L 534 165 Z M 318 176 L 318 177 L 318 176 Z M 415 194 L 412 197 L 415 197 L 415 194 Z M 390 202 L 390 203 L 391 203 L 390 202 Z M 403 203 L 398 207 L 408 211 L 411 205 L 411 203 L 403 203 Z " /><path fill="rgb(254,254,254)" stroke="rgb(254,254,254)" stroke-width="1" opacity="1" d="M 292.5 8 L 292.5 9 L 292.5 8 Z " /><path fill="rgb(254,254,254)" stroke="rgb(254,254,254)" stroke-width="1" opacity="1" d="M 288.5 9 L 288.5 10 L 288.5 9 Z " /><path fill="rgb(254,254,254)" stroke="rgb(254,254,254)" stroke-width="1" opacity="1" d="M 344.5 9 L 344.5 10 L 344.5 9 Z " /><path fill="rgb(254,254,254)" stroke="rgb(254,254,254)" stroke-width="1" opacity="1" d="M 284.5 10 L 284.5 11 L 284.5 10 Z " /><path fill="rgb(254,254,254)" stroke="rgb(254,254,254)" stroke-width="1" opacity="1" d="M 280.5 11 L 280.5 12 L 280.5 11 Z " /><path fill="rgb(254,254,254)" stroke="rgb(254,254,254)" stroke-width="1" opacity="1" d="M 351.5 11 L 351.5 12 L 351.5 11 Z " /><path fill="rgb(254,254,254)" stroke="rgb(254,254,254)" stroke-width="1" opacity="1" d="M 276.5 12 L 276.5 13 L 276.5 12 Z " /><path fill="rgb(254,254,254)" stroke="rgb(254,254,254)" stroke-width="1" opacity="1" d="M 272.5 13 L 272.5 14 L 272.5 13 Z " /><path fill="rgb(254,254,254)" stroke="rgb(254,254,254)" stroke-width="1" opacity="1" d="M 268.5 14 L 268.5 15 L 268.5 14 Z " /><path fill="rgb(254,254,254)" stroke="rgb(254,254,254)" stroke-width="1" opacity="1" d="M 264.5 15 L 264.5 16 L 264.5 15 Z " /><path fill="rgb(254,254,254)" stroke="rgb(254,254,254)" stroke-width="1" opacity="1" d="M 260.5 16 L 260.5 17 L 260.5 16 Z " /><path fill="rgb(254,254,254)" stroke="rgb(254,254,254)" stroke-width="1" opacity="1" d="M 256.5 17 L 256.5 18 L 256.5 17 Z " /><path fill="rgb(254,254,254)" stroke="rgb(254,254,254)" stroke-width="1" opacity="1" d="M 346.5 17 L 346.5 18 L 346.5 17 Z " /><path fill="rgb(254,254,254)" stroke="rgb(254,254,254)" stroke-width="1" opacity="1" d="M 252.5 18 L 252.5 19 L 252.5 18 Z " /><path fill="rgb(254,254,254)" stroke="rgb(254,254,254)" stroke-width="1" opacity="1" d="M 353.5 19 L 353.5 20 L 353.5 19 Z " /><path fill="rgb(254,254,254)" stroke="rgb(254,254,254)" stroke-width="1" opacity="1" d="M 269.5 21 L 269.5 22 L 269.5 21 Z " /><path fill="rgb(254,254,254)" stroke="rgb(254,254,254)" stroke-width="1" opacity="1" d="M 265.5 22 L 265.5 23 L 265.5 22 Z " /><path fill="rgb(254,254,254)" stroke="rgb(254,254,254)" stroke-width="1" opacity="1" d="M 261.5 23 L 261.5 24 L 261.5 23 Z " /><path fill="rgb(254,254,254)" stroke="rgb(254,254,254)" stroke-width="1" opacity="1" d="M 257.5 24 L 257.5 25 L 257.5 24 Z " /><path fill="rgb(254,254,254)" stroke="rgb(254,254,254)" stroke-width="1" opacity="1" d="M 375.5 25 L 375.5 26 L 375.5 25 Z " /><path fill="rgb(254,254,254)" stroke="rgb(254,254,254)" stroke-width="1" opacity="1" d="M 251.5 27 L 251.5 28 L 251.5 27 Z " /><path fill="rgb(254,254,254)" stroke="rgb(254,254,254)" stroke-width="1" opacity="1" d="M 247.5 30 L 247.5 31 L 247.5 30 Z " /><path fill="rgb(254,254,254)" stroke="rgb(254,254,254)" stroke-width="1" opacity="1" d="M 381.5 30 L 381.5 31 L 381.5 30 Z " /><path fill="rgb(254,254,254)" stroke="rgb(254,254,254)" stroke-width="1" opacity="1" d="M 371.5 31 L 371.5 32 L 371.5 31 Z " /><path fill="rgb(254,254,254)" stroke="rgb(254,254,254)" stroke-width="1" opacity="1" d="M 232.5 32 L 232.5 33 L 232.5 32 Z " /><path fill="rgb(254,254,254)" stroke="rgb(254,254,254)" stroke-width="1" opacity="1" d="M 240.5 35 L 240.5 36 L 240.5 35 Z " /><path fill="rgb(254,254,254)" stroke="rgb(254,254,254)" stroke-width="1" opacity="1" d="M 236.5 38 L 236.5 39 L 236.5 38 Z " /><path fill="rgb(254,254,254)" stroke="rgb(254,254,254)" stroke-width="1" opacity="1" d="M 221.5 40 L 221.5 41 L 221.5 40 Z " /><path fill="rgb(254,254,254)" stroke="rgb(254,254,254)" stroke-width="1" opacity="1" d="M 225.5 46 L 225.5 47 L 225.5 46 Z " /><path fill="rgb(254,254,254)" stroke="rgb(254,254,254)" stroke-width="1" opacity="1" d="M 512.5 50 L 512.5 51 L 512.5 50 Z " /><path fill="rgb(254,254,254)" stroke="rgb(254,254,254)" stroke-width="1" opacity="1" d="M 502.5 52 L 502.5 53 L 502.5 52 Z " /><path fill="rgb(254,254,254)" stroke="rgb(254,254,254)" stroke-width="1" opacity="1" d="M 507.5 57 L 507.5 58 L 507.5 57 Z " /><path fill="rgb(254,254,254)" stroke="rgb(254,254,254)" stroke-width="1" opacity="1" d="M 385.5 58 L 385.5 59 L 385.5 58 Z " /><path fill="rgb(254,254,254)" stroke="rgb(254,254,254)" stroke-width="1" opacity="1" d="M 497.5 59 L 497.5 60 L 497.5 59 Z " /><path fill="rgb(254,254,254)" stroke="rgb(254,254,254)" stroke-width="1" opacity="1" d="M 386.5 63 L 386.5 64 L 386.5 63 Z " /><path fill="rgb(254,254,254)" stroke="rgb(254,254,254)" stroke-width="1" opacity="1" d="M 502.5 64 L 502.5 65 L 502.5 64 Z " /><path fill="rgb(254,254,254)" stroke="rgb(254,254,254)" stroke-width="1" opacity="1" d="M 492.5 66 L 492.5 67 L 492.5 66 Z " /><path fill="rgb(254,254,254)" stroke="rgb(254,254,254)" stroke-width="1" opacity="1" d="M 387.5 68 L 387.5 69 L 387.5 68 Z " /><path fill="rgb(254,254,254)" stroke="rgb(254,254,254)" stroke-width="1" opacity="1" d="M 497.5 71 L 497.5 72 L 497.5 71 Z " /><path fill="rgb(254,254,254)" stroke="rgb(254,254,254)" stroke-width="1" opacity="1" d="M 388.5 73 L 388.5 74 L 388.5 73 Z " /><path fill="rgb(254,254,254)" stroke="rgb(254,254,254)" stroke-width="1" opacity="1" d="M 487.5 73 L 487.5 74 L 487.5 73 Z " /><path fill="rgb(254,254,254)" stroke="rgb(254,254,254)" stroke-width="1" opacity="1" d="M 243.5 77 L 243.5 78 L 243.5 77 Z " /><path fill="rgb(254,254,254)" stroke="rgb(254,254,254)" stroke-width="1" opacity="1" d="M 492.5 78 L 492.5 79 L 492.5 78 Z " /><path fill="rgb(254,254,254)" stroke="rgb(254,254,254)" stroke-width="1" opacity="1" d="M 482.5 80 L 482.5 81 L 482.5 80 Z " /><path fill="rgb(254,254,254)" stroke="rgb(254,254,254)" stroke-width="1" opacity="1" d="M 480.5 83 L 480.5 84 L 480.5 83 Z " /><path fill="rgb(254,254,254)" stroke="rgb(254,254,254)" stroke-width="1" opacity="1" d="M 252.5 85 L 252.5 86 L 252.5 85 Z " /><path fill="rgb(254,254,254)" stroke="rgb(254,254,254)" stroke-width="1" opacity="1" d="M 487.5 85 L 487.5 86 L 487.5 85 Z " /><path fill="rgb(254,254,254)" stroke="rgb(254,254,254)" stroke-width="1" opacity="1" d="M 261.5 93 L 261.5 94 L 261.5 93 Z " /><path fill="rgb(254,254,254)" stroke="rgb(254,254,254)" stroke-width="1" opacity="1" d="M 473.5 93 L 473.5 94 L 473.5 93 Z " /><path fill="rgb(254,254,254)" stroke="rgb(254,254,254)" stroke-width="1" opacity="1" d="M 386.5 94 L 386.5 95 L 386.5 94 Z " /><path fill="rgb(254,254,254)" stroke="rgb(254,254,254)" stroke-width="1" opacity="1" d="M 394.5 94 L 394.5 95 L 394.5 94 Z " /><path fill="rgb(254,254,254)" stroke="rgb(254,254,254)" stroke-width="1" opacity="1" d="M 480.5 95 L 480.5 96 L 480.5 95 Z " /><path fill="rgb(254,254,254)" stroke="rgb(254,254,254)" stroke-width="1" opacity="1" d="M 471.5 96 L 471.5 97 L 471.5 96 Z " /><path fill="rgb(254,254,254)" stroke="rgb(254,254,254)" stroke-width="1" opacity="1" d="M 204.5 98 L 204.5 99 L 204.5 98 Z " /><path fill="rgb(254,254,254)" stroke="rgb(254,254,254)" stroke-width="1" opacity="1" d="M 478.5 98 L 478.5 99 L 478.5 98 Z " /><path fill="rgb(254,254,254)" stroke="rgb(254,254,254)" stroke-width="1" opacity="1" d="M 270.5 101 L 270.5 102 L 270.5 101 Z " /><path fill="rgb(254,254,254)" stroke="rgb(254,254,254)" stroke-width="1" opacity="1" d="M 213.5 102 L 213.5 103 L 213.5 102 Z " /><path fill="rgb(254,254,254)" stroke="rgb(254,254,254)" stroke-width="1" opacity="1" d="M 207.5 106 L 207.5 107 L 207.5 106 Z " /><path fill="rgb(254,254,254)" stroke="rgb(254,254,254)" stroke-width="1" opacity="1" d="M 387.5 106 L 387.5 107 L 387.5 106 Z " /><path fill="rgb(254,254,254)" stroke="rgb(254,254,254)" stroke-width="1" opacity="1" d="M 464.5 106 L 464.5 107 L 464.5 106 Z " /><path fill="rgb(254,254,254)" stroke="rgb(254,254,254)" stroke-width="1" opacity="1" d="M 378.5 107 L 378.5 108 L 378.5 107 Z " /><path fill="rgb(254,254,254)" stroke="rgb(254,254,254)" stroke-width="1" opacity="1" d="M 471.5 108 L 471.5 109 L 471.5 108 Z " /><path fill="rgb(254,254,254)" stroke="rgb(254,254,254)" stroke-width="1" opacity="1" d="M 462.5 109 L 462.5 110 L 462.5 109 Z " /><path fill="rgb(254,254,254)" stroke="rgb(254,254,254)" stroke-width="1" opacity="1" d="M 216.5 110 L 216.5 111 L 216.5 110 Z " /><path fill="rgb(254,254,254)" stroke="rgb(254,254,254)" stroke-width="1" opacity="1" d="M 469.5 111 L 469.5 112 L 469.5 111 Z " /><path fill="rgb(254,254,254)" stroke="rgb(254,254,254)" stroke-width="1" opacity="1" d="M 210.5 114 L 210.5 115 L 210.5 114 Z " /><path fill="rgb(254,254,254)" stroke="rgb(254,254,254)" stroke-width="1" opacity="1" d="M 382.5 114 L 382.5 115 L 382.5 114 Z " /><path fill="rgb(254,254,254)" stroke="rgb(254,254,254)" stroke-width="1" opacity="1" d="M 538.5 117 L 540 117.5 L 538.5 118 L 538.5 117 Z " /><path fill="rgb(254,254,254)" stroke="rgb(254,254,254)" stroke-width="1" opacity="1" d="M 219.5 118 L 219.5 119 L 219.5 118 Z " /><path fill="rgb(254,254,254)" stroke="rgb(254,254,254)" stroke-width="1" opacity="1" d="M 369.5 119 L 369.5 120 L 369.5 119 Z " /><path fill="rgb(254,254,254)" stroke="rgb(254,254,254)" stroke-width="1" opacity="1" d="M 455.5 119 L 455.5 120 L 455.5 119 Z " /><path fill="rgb(254,254,254)" stroke="rgb(254,254,254)" stroke-width="1" opacity="1" d="M 462.5 121 L 462.5 122 L 462.5 121 Z " /><path fill="rgb(254,254,254)" stroke="rgb(254,254,254)" stroke-width="1" opacity="1" d="M 375.5 123 L 375.5 124 L 375.5 123 Z " /><path fill="rgb(254,254,254)" stroke="rgb(254,254,254)" stroke-width="1" opacity="1" d="M 460.5 124 L 460.5 125 L 460.5 124 Z " /><path fill="rgb(254,254,254)" stroke="rgb(254,254,254)" stroke-width="1" opacity="1" d="M 501.5 124 L 501.5 125 L 501.5 124 Z " /><path fill="rgb(254,254,254)" stroke="rgb(254,254,254)" stroke-width="1" opacity="1" d="M 364.5 125 L 364.5 126 L 364.5 125 Z " /><path fill="rgb(254,254,254)" stroke="rgb(254,254,254)" stroke-width="1" opacity="1" d="M 499.5 125 L 499.5 126 L 499.5 125 Z " /><path fill="rgb(254,254,254)" stroke="rgb(254,254,254)" stroke-width="1" opacity="1" d="M 222.5 126 L 222.5 127 L 222.5 126 Z " /><path fill="rgb(254,254,254)" stroke="rgb(254,254,254)" stroke-width="1" opacity="1" d="M 451.5 126 L 451.5 127 L 451.5 126 Z " /><path fill="rgb(254,254,254)" stroke="rgb(254,254,254)" stroke-width="1" opacity="1" d="M 514.5 126 L 514.5 127 L 514.5 126 Z " /><path fill="rgb(254,254,254)" stroke="rgb(254,254,254)" stroke-width="1" opacity="1" d="M 226.5 130 L 226.5 131 L 226.5 130 Z " /><path fill="rgb(254,254,254)" stroke="rgb(254,254,254)" stroke-width="1" opacity="1" d="M 359.5 131 L 358.5 133 L 359.5 131 Z " /><path fill="rgb(254,254,254)" stroke="rgb(254,254,254)" stroke-width="1" opacity="1" d="M 456.5 131 L 456.5 132 L 456.5 131 Z " /><path fill="rgb(254,254,254)" stroke="rgb(254,254,254)" stroke-width="1" opacity="1" d="M 230.5 133 L 230.5 134 L 230.5 133 Z " /><path fill="rgb(254,254,254)" stroke="rgb(254,254,254)" stroke-width="1" opacity="1" d="M 447.5 133 L 447.5 134 L 447.5 133 Z " /><path fill="rgb(254,254,254)" stroke="rgb(254,254,254)" stroke-width="1" opacity="1" d="M 536.5 134 L 536.5 135 L 536.5 134 Z " /><path fill="rgb(254,254,254)" stroke="rgb(254,254,254)" stroke-width="1" opacity="1" d="M 234.5 136 L 234.5 137 L 234.5 136 Z " /><path fill="rgb(254,254,254)" stroke="rgb(254,254,254)" stroke-width="1" opacity="1" d="M 238.5 139 L 238.5 140 L 238.5 139 Z " /><path fill="rgb(254,254,254)" stroke="rgb(254,254,254)" stroke-width="1" opacity="1" d="M 443.5 140 L 443.5 141 L 443.5 140 Z " /><path fill="rgb(254,254,254)" stroke="rgb(254,254,254)" stroke-width="1" opacity="1" d="M 451.5 140 L 451.5 141 L 451.5 140 Z " /><path fill="rgb(254,254,254)" stroke="rgb(254,254,254)" stroke-width="1" opacity="1" d="M 230.5 142 L 230.5 143 L 230.5 142 Z " /><path fill="rgb(254,254,254)" stroke="rgb(254,254,254)" stroke-width="1" opacity="1" d="M 242.5 142 L 242.5 143 L 242.5 142 Z " /><path fill="rgb(254,254,254)" stroke="rgb(254,254,254)" stroke-width="1" opacity="1" d="M 359.5 142 L 359.5 143 L 359.5 142 Z " /><path fill="rgb(254,254,254)" stroke="rgb(254,254,254)" stroke-width="1" opacity="1" d="M 234.5 145 L 234.5 146 L 234.5 145 Z " /><path fill="rgb(254,254,254)" stroke="rgb(254,254,254)" stroke-width="1" opacity="1" d="M 246.5 145 L 246.5 146 L 246.5 145 Z " /><path fill="rgb(254,254,254)" stroke="rgb(254,254,254)" stroke-width="1" opacity="1" d="M 345.5 145 L 345.5 146 L 345.5 145 Z " /><path fill="rgb(254,254,254)" stroke="rgb(254,254,254)" stroke-width="1" opacity="1" d="M 542.5 145 L 542.5 146 L 542.5 145 Z " /><path fill="rgb(254,254,254)" stroke="rgb(254,254,254)" stroke-width="1" opacity="1" d="M 251.5 147 L 251.5 148 L 251.5 147 Z " /><path fill="rgb(254,254,254)" stroke="rgb(254,254,254)" stroke-width="1" opacity="1" d="M 439.5 147 L 439.5 148 L 439.5 147 Z " /><path fill="rgb(254,254,254)" stroke="rgb(254,254,254)" stroke-width="1" opacity="1" d="M 447.5 147 L 447.5 148 L 447.5 147 Z " /><path fill="rgb(254,254,254)" stroke="rgb(254,254,254)" stroke-width="1" opacity="1" d="M 254.5 148 L 254.5 149 L 254.5 148 Z " /><path fill="rgb(254,254,254)" stroke="rgb(254,254,254)" stroke-width="1" opacity="1" d="M 257.5 149 L 257.5 150 L 257.5 149 Z " /><path fill="rgb(254,254,254)" stroke="rgb(254,254,254)" stroke-width="1" opacity="1" d="M 260.5 150 L 260.5 151 L 260.5 150 Z " /><path fill="rgb(254,254,254)" stroke="rgb(254,254,254)" stroke-width="1" opacity="1" d="M 269.5 153 L 269.5 154 L 269.5 153 Z " /><path fill="rgb(254,254,254)" stroke="rgb(254,254,254)" stroke-width="1" opacity="1" d="M 272.5 154 L 272.5 155 L 272.5 154 Z " /><path fill="rgb(254,254,254)" stroke="rgb(254,254,254)" stroke-width="1" opacity="1" d="M 435.5 154 L 435.5 155 L 435.5 154 Z " /><path fill="rgb(254,254,254)" stroke="rgb(254,254,254)" stroke-width="1" opacity="1" d="M 443.5 154 L 443.5 155 L 443.5 154 Z " /><path fill="rgb(254,254,254)" stroke="rgb(254,254,254)" stroke-width="1" opacity="1" d="M 541.5 158 L 541.5 159 L 541.5 158 Z " /><path fill="rgb(254,254,254)" stroke="rgb(254,254,254)" stroke-width="1" opacity="1" d="M 268.5 160 L 268.5 161 L 268.5 160 Z " /><path fill="rgb(254,254,254)" stroke="rgb(254,254,254)" stroke-width="1" opacity="1" d="M 431.5 161 L 431.5 162 L 431.5 161 Z " /><path fill="rgb(254,254,254)" stroke="rgb(254,254,254)" stroke-width="1" opacity="1" d="M 439.5 161 L 439.5 162 L 439.5 161 Z " /><path fill="rgb(254,254,254)" stroke="rgb(254,254,254)" stroke-width="1" opacity="1" d="M 444.5 162 L 444.5 163 L 444.5 162 Z " /><path fill="rgb(254,254,254)" stroke="rgb(254,254,254)" stroke-width="1" opacity="1" d="M 430.5 163 L 430.5 164 L 430.5 163 Z " /><path fill="rgb(254,254,254)" stroke="rgb(254,254,254)" stroke-width="1" opacity="1" d="M 435.5 168 L 435.5 169 L 435.5 168 Z " /><path fill="rgb(254,254,254)" stroke="rgb(254,254,254)" stroke-width="1" opacity="1" d="M 15.5 170 L 15.5 171 L 15.5 170 Z " /><path fill="rgb(254,254,254)" stroke="rgb(254,254,254)" stroke-width="1" opacity="1" d="M 426.5 170 L 426.5 171 L 426.5 170 Z " /><path fill="rgb(254,254,254)" stroke="rgb(254,254,254)" stroke-width="1" opacity="1" d="M 424.5 174 L 424.5 175 L 424.5 174 Z " /><path fill="rgb(254,254,254)" stroke="rgb(254,254,254)" stroke-width="1" opacity="1" d="M 439.5 175 L 439.5 176 L 439.5 175 Z " /><path fill="rgb(254,254,254)" stroke="rgb(254,254,254)" stroke-width="1" opacity="1" d="M 7.5 176 L 7.5 177 L 7.5 176 Z " /><path fill="rgb(254,254,254)" stroke="rgb(254,254,254)" stroke-width="1" opacity="1" d="M 14.5 176 L 14.5 177 L 14.5 176 Z " /><path fill="rgb(254,254,254)" stroke="rgb(254,254,254)" stroke-width="1" opacity="1" d="M 289.5 179 L 288.5 181 L 289.5 179 Z " /><path fill="rgb(254,254,254)" stroke="rgb(254,254,254)" stroke-width="1" opacity="1" d="M 6.5 182 L 6.5 183 L 6.5 182 Z " /><path fill="rgb(254,254,254)" stroke="rgb(254,254,254)" stroke-width="1" opacity="1" d="M 13.5 182 L 13.5 183 L 13.5 182 Z " /><path fill="rgb(254,254,254)" stroke="rgb(254,254,254)" stroke-width="1" opacity="1" d="M 312.5 182 L 312.5 183 L 312.5 182 Z " /><path fill="rgb(254,254,254)" stroke="rgb(254,254,254)" stroke-width="1" opacity="1" d="M 540.5 184 L 541 185.5 L 540 185.5 L 540.5 184 Z " /><path fill="rgb(254,254,254)" stroke="rgb(254,254,254)" stroke-width="1" opacity="1" d="M 296.5 187 L 296.5 188 L 296.5 187 Z " /><path fill="rgb(254,254,254)" stroke="rgb(254,254,254)" stroke-width="1" opacity="1" d="M 5.5 188 L 5.5 189 L 5.5 188 Z " /><path fill="rgb(254,254,254)" stroke="rgb(254,254,254)" stroke-width="1" opacity="1" d="M 12.5 188 L 12.5 189 L 12.5 188 Z " /><path fill="rgb(254,254,254)" stroke="rgb(254,254,254)" stroke-width="1" opacity="1" d="M 410.5 188 L 410.5 189 L 410.5 188 Z " /><path fill="rgb(254,254,254)" stroke="rgb(254,254,254)" stroke-width="1" opacity="1" d="M 364.5 191 L 364.5 192 L 364.5 191 Z " /><path fill="rgb(254,254,254)" stroke="rgb(254,254,254)" stroke-width="1" opacity="1" d="M 369.5 193 L 369.5 194 L 369.5 193 Z " /><path fill="rgb(254,254,254)" stroke="rgb(254,254,254)" stroke-width="1" opacity="1" d="M 403.5 193 L 403.5 194 L 403.5 193 Z " /><path fill="rgb(254,254,254)" stroke="rgb(254,254,254)" stroke-width="1" opacity="1" d="M 4.5 194 L 4.5 195 L 4.5 194 Z " /><path fill="rgb(254,254,254)" stroke="rgb(254,254,254)" stroke-width="1" opacity="1" d="M 414.5 194 L 414.5 195 L 414.5 194 Z " /><path fill="rgb(254,254,254)" stroke="rgb(254,254,254)" stroke-width="1" opacity="1" d="M 532.5 194 L 532.5 195 L 532.5 194 Z " /><path fill="rgb(254,254,254)" stroke="rgb(254,254,254)" stroke-width="1" opacity="1" d="M 539.5 194 L 539.5 195 L 539.5 194 Z " /><path fill="rgb(254,254,254)" stroke="rgb(254,254,254)" stroke-width="1" opacity="1" d="M 422.5 195 L 422.5 196 L 422.5 195 Z " /><path fill="rgb(254,254,254)" stroke="rgb(254,254,254)" stroke-width="1" opacity="1" d="M 414.5 196 L 414.5 197 L 414.5 196 Z " /><path fill="rgb(254,254,254)" stroke="rgb(254,254,254)" stroke-width="1" opacity="1" d="M 3.5 200 L 3.5 201 L 3.5 200 Z " /><path fill="rgb(254,254,254)" stroke="rgb(254,254,254)" stroke-width="1" opacity="1" d="M 538.5 201 L 538.5 202 L 538.5 201 Z " /><path fill="rgb(254,254,254)" stroke="rgb(254,254,254)" stroke-width="1" opacity="1" d="M 417.5 206 L 417.5 207 L 417.5 206 Z " /><path fill="rgb(254,254,254)" stroke="rgb(254,254,254)" stroke-width="1" opacity="1" d="M 9.5 207 L 10 208.5 L 9 208.5 L 9.5 207 Z " /><path fill="rgb(254,254,254)" stroke="rgb(254,254,254)" stroke-width="1" opacity="1" d="M 409.5 207 L 409.5 208 L 409.5 207 Z " /><path fill="rgb(254,254,254)" stroke="rgb(254,254,254)" stroke-width="1" opacity="1" d="M 530.5 209 L 530.5 210 L 530.5 209 Z " /><path fill="rgb(254,254,254)" stroke="rgb(254,254,254)" stroke-width="1" opacity="1" d="M 391.5 211 L 391.5 212 L 391.5 211 Z " /><path fill="rgb(254,254,254)" stroke="rgb(254,254,254)" stroke-width="1" opacity="1" d="M 393.5 212 L 393.5 213 L 393.5 212 Z " /><path fill="rgb(254,254,254)" stroke="rgb(254,254,254)" stroke-width="1" opacity="1" d="M 395.5 213 L 395.5 214 L 395.5 213 Z " /><path fill="rgb(254,254,254)" stroke="rgb(254,254,254)" stroke-width="1" opacity="1" d="M 370.5 216 L 370.5 217 L 370.5 216 Z " /><path fill="rgb(254,254,254)" stroke="rgb(254,254,254)" stroke-width="1" opacity="1" d="M 529.5 216 L 529.5 217 L 529.5 216 Z " /><path fill="rgb(254,254,254)" stroke="rgb(254,254,254)" stroke-width="1" opacity="1" d="M 536.5 216 L 536.5 217 L 536.5 216 Z " /><path fill="rgb(254,254,254)" stroke="rgb(254,254,254)" stroke-width="1" opacity="1" d="M 382.5 217 L 382.5 218 L 382.5 217 Z " /><path fill="rgb(254,254,254)" stroke="rgb(254,254,254)" stroke-width="1" opacity="1" d="M 404.5 218 L 404.5 219 L 404.5 218 Z " /><path fill="rgb(254,254,254)" stroke="rgb(254,254,254)" stroke-width="1" opacity="1" d="M 377.5 220 L 377.5 221 L 377.5 220 Z " /><path fill="rgb(254,254,254)" stroke="rgb(254,254,254)" stroke-width="1" opacity="1" d="M 403.5 220 L 403.5 221 L 403.5 220 Z " /><path fill="rgb(254,254,254)" stroke="rgb(254,254,254)" stroke-width="1" opacity="1" d="M 3.5 222 L 3.5 223 L 3.5 222 Z " /><path fill="rgb(254,254,254)" stroke="rgb(254,254,254)" stroke-width="1" opacity="1" d="M 10.5 223 L 11 224.5 L 10 224.5 L 10.5 223 Z " /><path fill="rgb(254,254,254)" stroke="rgb(254,254,254)" stroke-width="1" opacity="1" d="M 407.5 228 L 407.5 229 L 407.5 228 Z " /><path fill="rgb(254,254,254)" stroke="rgb(254,254,254)" stroke-width="1" opacity="1" d="M 399.5 229 L 399.5 230 L 399.5 229 Z " /><path fill="rgb(254,254,254)" stroke="rgb(254,254,254)" stroke-width="1" opacity="1" d="M 406.5 230 L 406.5 231 L 406.5 230 Z " /><path fill="rgb(254,254,254)" stroke="rgb(254,254,254)" stroke-width="1" opacity="1" d="M 359.5 231 L 359.5 232 L 359.5 231 Z " /><path fill="rgb(254,254,254)" stroke="rgb(254,254,254)" stroke-width="1" opacity="1" d="M 354.5 234 L 354.5 235 L 354.5 234 Z " /><path fill="rgb(254,254,254)" stroke="rgb(254,254,254)" stroke-width="1" opacity="1" d="M 397.5 234 L 397.5 235 L 397.5 234 Z " /><path fill="rgb(254,254,254)" stroke="rgb(254,254,254)" stroke-width="1" opacity="1" d="M 404.5 235 L 404.5 236 L 404.5 235 Z " /><path fill="rgb(254,254,254)" stroke="rgb(254,254,254)" stroke-width="1" opacity="1" d="M 4.5 238 L 4.5 239 L 4.5 238 Z " /><path fill="rgb(254,254,254)" stroke="rgb(254,254,254)" stroke-width="1" opacity="1" d="M 11.5 238 L 11.5 239 L 11.5 238 Z " /><path fill="rgb(254,254,254)" stroke="rgb(254,254,254)" stroke-width="1" opacity="1" d="M 333.5 238 L 333.5 239 L 333.5 238 Z " /><path fill="rgb(254,254,254)" stroke="rgb(254,254,254)" stroke-width="1" opacity="1" d="M 331.5 239 L 331.5 240 L 331.5 239 Z " /><path fill="rgb(254,254,254)" stroke="rgb(254,254,254)" stroke-width="1" opacity="1" d="M 439.5 239 L 439.5 240 L 439.5 239 Z " /><path fill="rgb(254,254,254)" stroke="rgb(254,254,254)" stroke-width="1" opacity="1" d="M 453.5 239 L 453.5 240 L 453.5 239 Z " /><path fill="rgb(254,254,254)" stroke="rgb(254,254,254)" stroke-width="1" opacity="1" d="M 402.5 240 L 402.5 241 L 402.5 240 Z " /><path fill="rgb(254,254,254)" stroke="rgb(254,254,254)" stroke-width="1" opacity="1" d="M 12.5 241 L 12.5 242 L 12.5 241 Z " /><path fill="rgb(254,254,254)" stroke="rgb(254,254,254)" stroke-width="1" opacity="1" d="M 523.5 241 L 523.5 242 L 523.5 241 Z " /><path fill="rgb(254,254,254)" stroke="rgb(254,254,254)" stroke-width="1" opacity="1" d="M 444.5 242 L 444.5 243 L 444.5 242 Z " /><path fill="rgb(254,254,254)" stroke="rgb(254,254,254)" stroke-width="1" opacity="1" d="M 530.5 242 L 530.5 243 L 530.5 242 Z " /><path fill="rgb(254,254,254)" stroke="rgb(254,254,254)" stroke-width="1" opacity="1" d="M 13.5 244 L 13.5 245 L 13.5 244 Z " /><path fill="rgb(254,254,254)" stroke="rgb(254,254,254)" stroke-width="1" opacity="1" d="M 320.5 245 L 320.5 246 L 320.5 245 Z " /><path fill="rgb(254,254,254)" stroke="rgb(254,254,254)" stroke-width="1" opacity="1" d="M 318.5 246 L 318.5 247 L 318.5 246 Z " /><path fill="rgb(254,254,254)" stroke="rgb(254,254,254)" stroke-width="1" opacity="1" d="M 14.5 247 L 14.5 248 L 14.5 247 Z " /><path fill="rgb(254,254,254)" stroke="rgb(254,254,254)" stroke-width="1" opacity="1" d="M 316.5 247 L 316.5 248 L 316.5 247 Z " /><path fill="rgb(254,254,254)" stroke="rgb(254,254,254)" stroke-width="1" opacity="1" d="M 468.5 247 L 468.5 248 L 468.5 247 Z " /><path fill="rgb(254,254,254)" stroke="rgb(254,254,254)" stroke-width="1" opacity="1" d="M 456.5 249 L 456.5 250 L 456.5 249 Z " /><path fill="rgb(254,254,254)" stroke="rgb(254,254,254)" stroke-width="1" opacity="1" d="M 477.5 251 L 477.5 252 L 477.5 251 Z " /><path fill="rgb(254,254,254)" stroke="rgb(254,254,254)" stroke-width="1" opacity="1" d="M 322.5 252 L 322.5 253 L 322.5 252 Z " /><path fill="rgb(254,254,254)" stroke="rgb(254,254,254)" stroke-width="1" opacity="1" d="M 462.5 252 L 462.5 253 L 462.5 252 Z " /><path fill="rgb(254,254,254)" stroke="rgb(254,254,254)" stroke-width="1" opacity="1" d="M 305.5 253 L 305.5 254 L 305.5 253 Z " /><path fill="rgb(254,254,254)" stroke="rgb(254,254,254)" stroke-width="1" opacity="1" d="M 303.5 254 L 303.5 255 L 303.5 254 Z " /><path fill="rgb(254,254,254)" stroke="rgb(254,254,254)" stroke-width="1" opacity="1" d="M 301.5 255 L 301.5 256 L 301.5 255 Z " /><path fill="rgb(254,254,254)" stroke="rgb(254,254,254)" stroke-width="1" opacity="1" d="M 471.5 256 L 471.5 257 L 471.5 256 Z " /><path fill="rgb(254,254,254)" stroke="rgb(254,254,254)" stroke-width="1" opacity="1" d="M 505.5 260 L 505.5 261 L 505.5 260 Z " /><path fill="rgb(254,254,254)" stroke="rgb(254,254,254)" stroke-width="1" opacity="1" d="M 305.5 261 L 305.5 262 L 305.5 261 Z " /><path fill="rgb(254,254,254)" stroke="rgb(254,254,254)" stroke-width="1" opacity="1" d="M 386.5 261 L 386.5 262 L 386.5 261 Z " /><path fill="rgb(254,254,254)" stroke="rgb(254,254,254)" stroke-width="1" opacity="1" d="M 287.5 262 L 287.5 263 L 287.5 262 Z " /><path fill="rgb(254,254,254)" stroke="rgb(254,254,254)" stroke-width="1" opacity="1" d="M 495.5 265 L 495.5 266 L 495.5 265 Z " /><path fill="rgb(254,254,254)" stroke="rgb(254,254,254)" stroke-width="1" opacity="1" d="M 295.5 266 L 295.5 267 L 295.5 266 Z " /><path fill="rgb(254,254,254)" stroke="rgb(254,254,254)" stroke-width="1" opacity="1" d="M 384.5 266 L 384.5 267 L 384.5 266 Z " /><path fill="rgb(254,254,254)" stroke="rgb(254,254,254)" stroke-width="1" opacity="1" d="M 498.5 266 L 498.5 267 L 498.5 266 Z " /><path fill="rgb(254,254,254)" stroke="rgb(254,254,254)" stroke-width="1" opacity="1" d="M 13.5 267 L 13.5 268 L 13.5 267 Z " /><path fill="rgb(254,254,254)" stroke="rgb(254,254,254)" stroke-width="1" opacity="1" d="M 276.5 267 L 276.5 268 L 276.5 267 Z " /><path fill="rgb(254,254,254)" stroke="rgb(254,254,254)" stroke-width="1" opacity="1" d="M 293.5 267 L 293.5 268 L 293.5 267 Z " /><path fill="rgb(254,254,254)" stroke="rgb(254,254,254)" stroke-width="1" opacity="1" d="M 391.5 267 L 391.5 268 L 391.5 267 Z " /><path fill="rgb(254,254,254)" stroke="rgb(254,254,254)" stroke-width="1" opacity="1" d="M 505.5 267 L 505.5 268 L 505.5 267 Z " /><path fill="rgb(254,254,254)" stroke="rgb(254,254,254)" stroke-width="1" opacity="1" d="M 274.5 268 L 274.5 269 L 274.5 268 Z " /><path fill="rgb(254,254,254)" stroke="rgb(254,254,254)" stroke-width="1" opacity="1" d="M 291.5 268 L 291.5 269 L 291.5 268 Z " /><path fill="rgb(254,254,254)" stroke="rgb(254,254,254)" stroke-width="1" opacity="1" d="M 272.5 269 L 272.5 270 L 272.5 269 Z " /><path fill="rgb(254,254,254)" stroke="rgb(254,254,254)" stroke-width="1" opacity="1" d="M 14.5 270 L 14.5 271 L 14.5 270 Z " /><path fill="rgb(254,254,254)" stroke="rgb(254,254,254)" stroke-width="1" opacity="1" d="M 382.5 271 L 382.5 272 L 382.5 271 Z " /><path fill="rgb(254,254,254)" stroke="rgb(254,254,254)" stroke-width="1" opacity="1" d="M 389.5 272 L 389.5 273 L 389.5 272 Z " /><path fill="rgb(254,254,254)" stroke="rgb(254,254,254)" stroke-width="1" opacity="1" d="M 280.5 273 L 280.5 274 L 280.5 273 Z " /><path fill="rgb(254,254,254)" stroke="rgb(254,254,254)" stroke-width="1" opacity="1" d="M 261.5 274 L 261.5 275 L 261.5 274 Z " /><path fill="rgb(254,254,254)" stroke="rgb(254,254,254)" stroke-width="1" opacity="1" d="M 278.5 274 L 278.5 275 L 278.5 274 Z " /><path fill="rgb(254,254,254)" stroke="rgb(254,254,254)" stroke-width="1" opacity="1" d="M 259.5 275 L 259.5 276 L 259.5 275 Z " /><path fill="rgb(254,254,254)" stroke="rgb(254,254,254)" stroke-width="1" opacity="1" d="M 257.5 276 L 257.5 277 L 257.5 276 Z " /><path fill="rgb(254,254,254)" stroke="rgb(254,254,254)" stroke-width="1" opacity="1" d="M 380.5 276 L 380.5 277 L 380.5 276 Z " /><path fill="rgb(254,254,254)" stroke="rgb(254,254,254)" stroke-width="1" opacity="1" d="M 387.5 277 L 387.5 278 L 387.5 277 Z " /><path fill="rgb(254,254,254)" stroke="rgb(254,254,254)" stroke-width="1" opacity="1" d="M 265.5 280 L 265.5 281 L 265.5 280 Z " /><path fill="rgb(254,254,254)" stroke="rgb(254,254,254)" stroke-width="1" opacity="1" d="M 246.5 281 L 246.5 282 L 246.5 281 Z " /><path fill="rgb(254,254,254)" stroke="rgb(254,254,254)" stroke-width="1" opacity="1" d="M 263.5 281 L 263.5 282 L 263.5 281 Z " /><path fill="rgb(254,254,254)" stroke="rgb(254,254,254)" stroke-width="1" opacity="1" d="M 378.5 281 L 378.5 282 L 378.5 281 Z " /><path fill="rgb(254,254,254)" stroke="rgb(254,254,254)" stroke-width="1" opacity="1" d="M 244.5 282 L 244.5 283 L 244.5 282 Z " /><path fill="rgb(254,254,254)" stroke="rgb(254,254,254)" stroke-width="1" opacity="1" d="M 385.5 282 L 385.5 283 L 385.5 282 Z " /><path fill="rgb(254,254,254)" stroke="rgb(254,254,254)" stroke-width="1" opacity="1" d="M 242.5 283 L 242.5 284 L 242.5 283 Z " /><path fill="rgb(254,254,254)" stroke="rgb(254,254,254)" stroke-width="1" opacity="1" d="M 376.5 286 L 376.5 287 L 376.5 286 Z " /><path fill="rgb(254,254,254)" stroke="rgb(254,254,254)" stroke-width="1" opacity="1" d="M 250.5 287 L 250.5 288 L 250.5 287 Z " /><path fill="rgb(254,254,254)" stroke="rgb(254,254,254)" stroke-width="1" opacity="1" d="M 383.5 287 L 383.5 288 L 383.5 287 Z " /><path fill="rgb(254,254,254)" stroke="rgb(254,254,254)" stroke-width="1" opacity="1" d="M 38.5 291 L 38.5 292 L 38.5 291 Z " /><path fill="rgb(254,254,254)" stroke="rgb(254,254,254)" stroke-width="1" opacity="1" d="M 374.5 291 L 374.5 292 L 374.5 291 Z " /><path fill="rgb(254,254,254)" stroke="rgb(254,254,254)" stroke-width="1" opacity="1" d="M 239.5 292 L 239.5 293 L 239.5 292 Z " /><path fill="rgb(254,254,254)" stroke="rgb(254,254,254)" stroke-width="1" opacity="1" d="M 381.5 292 L 381.5 293 L 381.5 292 Z " /><path fill="rgb(254,254,254)" stroke="rgb(254,254,254)" stroke-width="1" opacity="1" d="M 30.5 294 L 30.5 295 L 30.5 294 Z " /><path fill="rgb(254,254,254)" stroke="rgb(254,254,254)" stroke-width="1" opacity="1" d="M 42.5 294 L 42.5 295 L 42.5 294 Z " /><path fill="rgb(254,254,254)" stroke="rgb(254,254,254)" stroke-width="1" opacity="1" d="M 226.5 296 L 226.5 297 L 226.5 296 Z " /><path fill="rgb(254,254,254)" stroke="rgb(254,254,254)" stroke-width="1" opacity="1" d="M 372.5 296 L 372.5 297 L 372.5 296 Z " /><path fill="rgb(254,254,254)" stroke="rgb(254,254,254)" stroke-width="1" opacity="1" d="M 34.5 297 L 34.5 298 L 34.5 297 Z " /><path fill="rgb(254,254,254)" stroke="rgb(254,254,254)" stroke-width="1" opacity="1" d="M 46.5 297 L 46.5 298 L 46.5 297 Z " /><path fill="rgb(254,254,254)" stroke="rgb(254,254,254)" stroke-width="1" opacity="1" d="M 379.5 297 L 379.5 298 L 379.5 297 Z " /><path fill="rgb(254,254,254)" stroke="rgb(254,254,254)" stroke-width="1" opacity="1" d="M 216.5 299 L 216.5 300 L 216.5 299 Z " /><path fill="rgb(254,254,254)" stroke="rgb(254,254,254)" stroke-width="1" opacity="1" d="M 371.5 299 L 371.5 300 L 371.5 299 Z " /><path fill="rgb(254,254,254)" stroke="rgb(254,254,254)" stroke-width="1" opacity="1" d="M 38.5 300 L 38.5 301 L 38.5 300 Z " /><path fill="rgb(254,254,254)" stroke="rgb(254,254,254)" stroke-width="1" opacity="1" d="M 50.5 300 L 51.5 302 L 50.5 300 Z " /><path fill="rgb(254,254,254)" stroke="rgb(254,254,254)" stroke-width="1" opacity="1" d="M 213.5 300 L 213.5 301 L 213.5 300 Z " /><path fill="rgb(254,254,254)" stroke="rgb(254,254,254)" stroke-width="1" opacity="1" d="M 370.5 302 L 370.5 303 L 370.5 302 Z " /><path fill="rgb(254,254,254)" stroke="rgb(254,254,254)" stroke-width="1" opacity="1" d="M 42.5 303 L 42.5 304 L 42.5 303 Z " /><path fill="rgb(254,254,254)" stroke="rgb(254,254,254)" stroke-width="1" opacity="1" d="M 203.5 303 L 203.5 304 L 203.5 303 Z " /><path fill="rgb(254,254,254)" stroke="rgb(254,254,254)" stroke-width="1" opacity="1" d="M 55.5 304 L 55.5 305 L 55.5 304 Z " /><path fill="rgb(254,254,254)" stroke="rgb(254,254,254)" stroke-width="1" opacity="1" d="M 376.5 305 L 376.5 306 L 376.5 305 Z " /><path fill="rgb(254,254,254)" stroke="rgb(254,254,254)" stroke-width="1" opacity="1" d="M 47.5 307 L 47.5 308 L 47.5 307 Z " /><path fill="rgb(254,254,254)" stroke="rgb(254,254,254)" stroke-width="1" opacity="1" d="M 59.5 307 L 59.5 308 L 59.5 307 Z " /><path fill="rgb(254,254,254)" stroke="rgb(254,254,254)" stroke-width="1" opacity="1" d="M 190.5 307 L 190.5 308 L 190.5 307 Z " /><path fill="rgb(254,254,254)" stroke="rgb(254,254,254)" stroke-width="1" opacity="1" d="M 157.5 308 L 157.5 309 L 157.5 308 Z " /><path fill="rgb(254,254,254)" stroke="rgb(254,254,254)" stroke-width="1" opacity="1" d="M 375.5 308 L 375.5 309 L 375.5 308 Z " /><path fill="rgb(254,254,254)" stroke="rgb(254,254,254)" stroke-width="1" opacity="1" d="M 147.5 309 L 147.5 310 L 147.5 309 Z " /><path fill="rgb(254,254,254)" stroke="rgb(254,254,254)" stroke-width="1" opacity="1" d="M 137.5 310 L 137.5 311 L 137.5 310 Z " /><path fill="rgb(254,254,254)" stroke="rgb(254,254,254)" stroke-width="1" opacity="1" d="M 180.5 310 L 180.5 311 L 180.5 310 Z " /><path fill="rgb(254,254,254)" stroke="rgb(254,254,254)" stroke-width="1" opacity="1" d="M 367.5 310 L 367.5 311 L 367.5 310 Z " /><path fill="rgb(254,254,254)" stroke="rgb(254,254,254)" stroke-width="1" opacity="1" d="M 87.5 311 L 89 311.5 L 87.5 312 L 87.5 311 Z " /><path fill="rgb(254,254,254)" stroke="rgb(254,254,254)" stroke-width="1" opacity="1" d="M 127.5 311 L 127.5 312 L 127.5 311 Z " /><path fill="rgb(254,254,254)" stroke="rgb(254,254,254)" stroke-width="1" opacity="1" d="M 374.5 311 L 374.5 312 L 374.5 311 Z " /><path fill="rgb(254,254,254)" stroke="rgb(254,254,254)" stroke-width="1" opacity="1" d="M 114.5 312 L 116 312.5 L 114.5 313 L 114.5 312 Z " /><path fill="rgb(254,254,254)" stroke="rgb(254,254,254)" stroke-width="1" opacity="1" d="M 117.5 312 L 117.5 313 L 117.5 312 Z " /><path fill="rgb(254,254,254)" stroke="rgb(254,254,254)" stroke-width="1" opacity="1" d="M 55.5 313 L 55.5 314 L 55.5 313 Z " /><path fill="rgb(254,254,254)" stroke="rgb(254,254,254)" stroke-width="1" opacity="1" d="M 166.5 314 L 168 314.5 L 166.5 315 L 166.5 314 Z " /><path fill="rgb(254,254,254)" stroke="rgb(254,254,254)" stroke-width="1" opacity="1" d="M 156.5 315 L 156.5 316 L 156.5 315 Z " /><path fill="rgb(254,254,254)" stroke="rgb(254,254,254)" stroke-width="1" opacity="1" d="M 365.5 315 L 365.5 316 L 365.5 315 Z " /><path fill="rgb(254,254,254)" stroke="rgb(254,254,254)" stroke-width="1" opacity="1" d="M 146.5 316 L 148 316.5 L 146.5 317 L 146.5 316 Z " /><path fill="rgb(254,254,254)" stroke="rgb(254,254,254)" stroke-width="1" opacity="1" d="M 372.5 316 L 372.5 317 L 372.5 316 Z " /><path fill="rgb(254,254,254)" stroke="rgb(254,254,254)" stroke-width="1" opacity="1" d="M 61.5 317 L 65 317.5 L 61.5 318 L 61.5 317 Z " /><path fill="rgb(254,254,254)" stroke="rgb(254,254,254)" stroke-width="1" opacity="1" d="M 136.5 317 L 136.5 318 L 136.5 317 Z " /><path fill="rgb(254,254,254)" stroke="rgb(254,254,254)" stroke-width="1" opacity="1" d="M 89.5 318 L 93 318.5 L 89.5 319 L 89.5 318 Z " /><path fill="rgb(254,254,254)" stroke="rgb(254,254,254)" stroke-width="1" opacity="1" d="M 126.5 318 L 126.5 319 L 126.5 318 Z " /><path fill="rgb(254,254,254)" stroke="rgb(254,254,254)" stroke-width="1" opacity="1" d="M 370.5 321 L 370.5 322 L 370.5 321 Z " /><path fill="rgb(254,254,254)" stroke="rgb(254,254,254)" stroke-width="1" opacity="1" d="M 363.5 327 L 363.5 328 L 363.5 327 Z " /><path fill="rgb(254,254,254)" stroke="rgb(254,254,254)" stroke-width="1" opacity="1" d="M 368.5 327 L 368.5 328 L 368.5 327 Z " /><path fill="rgb(255,255,255)" stroke="rgb(255,255,255)" stroke-width="1" opacity="1" d="M 0 0 L 720 0 L 720 371 L 0 371 L 0 0 Z M 293 8 L 253 18 L 217 43 L 210 58 L 204 54 L 170 54 L 169 55 L 135 55 Q 133 58 128 56 L 95 67 L 69 82 L 35 116 L 11 156 L 3 201 L 3 223 L 4 224 Q 3 235 5 243 L 14 271 L 29 294 L 62 318 L 89 318 L 90 319 L 127 319 L 138 317 L 157 316 L 158 315 L 168 315 L 178 311 L 240 293 L 292 269 L 323 253 Q 358 234 391 212 L 404 217 L 403 223 Q 381 270 363 322 L 363 328 L 369 328 L 369 325 Q 375 314 378 301 L 410 222 L 413 222 L 430 234 L 457 250 L 479 260 L 499 267 L 521 268 L 525 263 L 536 224 L 537 210 L 540 195 L 540 187 L 541 186 L 542 147 L 548 119 L 550 96 L 551 95 L 551 85 L 552 84 L 552 26 L 549 17 L 537 17 L 534 18 L 525 25 L 525 27 L 507 46 L 455 120 L 426 171 L 423 179 L 401 196 L 371 194 L 344 183 L 327 179 L 324 171 L 339 161 L 376 161 L 376 161 L 376 155 L 346 155 L 360 143 L 381 118 L 395 95 L 395 69 L 391 49 L 383 32 L 364 15 L 345 9 L 341 8 L 293 8 Z " /><path fill="rgb(255,255,255)" stroke="rgb(255,255,255)" stroke-width="1" opacity="1" d="M 298.5 14 L 335.5 14 L 356.5 20 L 359.5 21 L 378 37.5 L 384 49.5 L 388 69.5 L 388 92.5 L 375 113.5 L 346.5 145 L 343.5 147 L 335.5 155 L 312 155 L 300 134.5 L 284 114.5 L 270.5 101 L 243.5 77 L 216 61.5 L 224.5 47 L 254.5 25 L 298.5 14 Z " /><path fill="rgb(255,255,255)" stroke="rgb(255,255,255)" stroke-width="1" opacity="1" d="M 540.5 23 Q 544.9 21.5 544 24.5 L 546 28.5 L 546 59.5 L 545 60.5 L 545 87.5 L 544 88.5 L 544 95.5 L 543 96.5 L 543 103.5 L 540.5 118 L 538.5 117 L 537.5 118 L 515.5 118 L 493.5 128 L 457.5 152 L 435.5 170 L 436 168.5 L 467 114.5 L 510 53.5 L 530 31.5 L 530 30 L 540.5 23 Z " /><path fill="rgb(255,255,255)" stroke="rgb(255,255,255)" stroke-width="1" opacity="1" d="M 197.5 60 L 207 64.5 L 204 69.5 L 204 98.5 L 217 133 L 242.5 152 L 268.5 161 L 307.5 161 L 310 163.5 L 314 169.5 L 304.5 176 Q 292.6 174.6 288 180.5 L 288 188 L 296.5 188 L 307.5 182 L 311.5 182 L 320.5 184 L 327 189.5 Q 326.3 191.8 328.5 191 L 338.5 196 L 367.5 200 L 383 207 L 381.5 210 L 342.5 234 L 299.5 257 L 237.5 286 L 166.5 308 L 157.5 308 L 156.5 309 L 147.5 309 L 146.5 310 L 137.5 310 L 136.5 311 L 127.5 311 L 116.5 313 L 115.5 312 L 63.5 311 L 33 286.5 L 21 268.5 L 11 237.5 L 10 201.5 L 18 157.5 L 40 120.5 L 73.5 87 L 98.5 73 L 131.5 62 L 196.5 61 L 197.5 60 Z " /><path fill="rgb(255,255,255)" stroke="rgb(255,255,255)" stroke-width="1" opacity="1" d="M 213.5 68 L 239.5 83 L 278 118.5 L 294 138.5 L 304 154.5 L 273.5 155 L 251.5 147 L 248.5 147 L 223 127.5 L 210 93.5 L 210 73.5 L 213.5 68 Z " /><path fill="rgb(255,255,255)" stroke="rgb(255,255,255)" stroke-width="1" opacity="1" d="M 519.5 124 L 537 124 L 537 133.5 L 536 134.5 L 535 147.5 L 518 180.5 L 513.5 185 L 501.5 194 L 475.5 197 L 474.5 198 L 467.5 198 L 466.5 197 L 422 196.5 Q 424.1 187.1 430.5 182 L 461.5 158 L 497.5 134 L 519.5 124 Z " /><path fill="rgb(255,255,255)" stroke="rgb(255,255,255)" stroke-width="1" opacity="1" d="M 317.5 161 L 326 161.5 L 319.5 165 L 317.5 161 Z " /><path fill="rgb(255,255,255)" stroke="rgb(255,255,255)" stroke-width="1" opacity="1" d="M 533.5 165 L 534 186.5 L 533 187.5 L 532 201.5 L 529 216.5 L 529 223.5 L 519 258.5 L 515.5 262 L 500.5 260 L 466.5 247 Q 438.3 232.7 414 214.5 L 418 204 L 481.5 204 L 482.5 203 L 502.5 201 L 523 187 L 533.5 165 Z " /><path fill="rgb(255,255,255)" stroke="rgb(255,255,255)" stroke-width="1" opacity="1" d="M 317.5 176 L 317.5 177 L 317.5 176 Z " /><path fill="rgb(255,255,255)" stroke="rgb(255,255,255)" stroke-width="1" opacity="1" d="M 413.5 195 L 415 195.5 L 412.5 197 L 413.5 195 Z " /><path fill="rgb(255,255,255)" stroke="rgb(255,255,255)" stroke-width="1" opacity="1" d="M 389.5 202 L 391 202.5 L 389.5 203 L 389.5 202 Z " /><path fill="rgb(255,255,255)" stroke="rgb(255,255,255)" stroke-width="1" opacity="1" d="M 402.5 203 L 410.5 203 L 411 204.5 L 407.5 211 L 398 206.5 L 402.5 203 Z " /></svg>